# xmcd
#
# Track frame offsets: 
#        150
#        16133
#        22315
#        38298
#        54281
#        70264
#
# Disc length: 1143 seconds
#
# Revision: 0
# Processed by: cddbd v1.5.2PL0 Copyright (c) Steve Scherf et al.
# Submitted via: ExactAudioCopy v1.0b6
#
DISCID=40047506
DTITLE=Francesca Battistelli - Motion of Mercy (Christian World Soundt
DTITLE=raks) (2011)
DYEAR=2011
DGENRE=Performance Trax
TTITLE0=Motion of Mercy - Demonstration
TTITLE1=Promo
TTITLE2=Motion of Mercy - Performance Track - Original Key with BGV's 
TTITLE2=[F]
TTITLE3=Motion of Mercy - Performance Track - Higher Key with BGV's [A
TTITLE3=b]
TTITLE4=Motion of Mercy - Performance Track - Lower Key with BGV's [D]
TTITLE5=Motion of Mercy - Performance Track - Original Key without BGV
TTITLE5='s [F]
EXTD=
EXTT0=
EXTT1=
EXTT2=
EXTT3=
EXTT4=
EXTT5=
PLAYORDER=
